Coordinates
version=1
nRows=49
nColumns=24
inDegrees=yes

Units are S.I. units (second, meters, Newtons, ...)
If the header above contains a line with 'inDegrees', this indicates whether rotational values are in degrees (yes) or radians (no).

endheader
time	pelvis_tilt	pelvis_list	pelvis_rotation	pelvis_tx	pelvis_ty	pelvis_tz	hip_flexion_r	hip_adduction_r	hip_rotation_r	knee_angle_r	ankle_angle_r	subtalar_angle_r	mtp_angle_r	hip_flexion_l	hip_adduction_l	hip_rotation_l	knee_angle_l	ankle_angle_l	subtalar_angle_l	mtp_angle_l	lumbar_extension	lumbar_bending	lumbar_rotation
3.425000	11.442787	2.743699	-179.540966	0.270754	0.745712	-1.211109	44.519637	-21.408809	-24.308645	-61.910033	21.999647	10.744743	0.000000	46.957278	-27.366227	-19.168743	-62.123706	22.149784	19.385925	0.000000	-5.046591	2.072048	3.703109
3.430000	11.454030	2.747824	-179.534651	0.271546	0.742717	-1.211363	45.034597	-21.612635	-24.229048	-62.792030	22.273298	10.635777	0.000000	47.517822	-27.487620	-18.830492	-62.917538	22.482470	19.317682	0.000000	-5.163075	2.009700	3.801015
3.435000	11.468032	2.784907	-179.520750	0.272374	0.739629	-1.211732	45.543469	-21.756041	-24.097831	-63.647810	22.656322	10.603438	0.000000	48.112204	-27.642555	-18.456417	-63.723500	22.859371	19.276768	0.000000	-5.268430	1.999173	3.826938
3.440000	11.471560	2.793462	-179.513465	0.273263	0.736522	-1.211975	46.068029	-21.947699	-23.957455	-64.521641	23.056690	10.602095	0.000000	48.707303	-27.768081	-18.092862	-64.578864	23.166099	19.170492	0.000000	-5.378943	1.999137	3.829092
3.445000	11.511856	2.821152	-179.528342	0.274055	0.733374	-1.212261	46.619020	-22.093574	-23.805862	-65.377831	23.416165	10.619355	0.000000	49.318684	-27.925639	-17.744005	-65.402180	23.492942	19.088415	0.000000	-5.454259	1.990767	3.872228
3.450000	11.542352	2.817445	-179.501283	0.274886	0.730286	-1.212592	47.139688	-22.278349	-23.652753	-66.201783	23.766960	10.665310	0.000000	49.898771	-28.030001	-17.412742	-66.142334	23.883132	19.099980	0.000000	-5.546181	1.938004	3.859416
3.455000	11.570108	2.808961	-179.481237	0.275763	0.727110	-1.212880	47.666437	-22.452995	-23.464837	-67.028411	24.151211	10.701379	0.000000	50.488840	-28.131735	-17.089228	-66.932953	24.234692	19.066778	0.000000	-5.647813	1.889584	3.847058
3.460000	11.580398	2.793591	-179.482444	0.276686	0.723833	-1.213183	48.209746	-22.627363	-23.257455	-67.894839	24.529416	10.729393	0.000000	51.067474	-28.257619	-16.796926	-67.748197	24.638504	18.979755	0.000000	-5.768833	1.837978	3.849468
3.465000	11.638162	2.814072	-179.510835	0.277506	0.720605	-1.213397	48.780246	-22.771457	-23.094960	-68.731247	24.867188	10.742565	0.000000	51.679985	-28.415912	-16.497733	-68.533471	24.984631	18.877393	0.000000	-5.822259	1.845703	3.885320
3.470000	11.662435	2.799325	-179.510454	0.278329	0.717333	-1.213682	49.330450	-22.942686	-22.898888	-69.580078	25.264513	10.685849	0.000000	52.241772	-28.532436	-16.208262	-69.298547	25.221337	18.789368	0.000000	-5.921468	1.790918	3.881070
3.475000	11.629565	2.777866	-179.497340	0.279057	0.714107	-1.213984	49.802959	-23.131243	-22.715651	-70.418357	25.663610	10.668831	0.000000	52.750023	-28.660499	-15.961935	-70.076369	25.607997	18.929265	0.000000	-6.074551	1.716819	3.887385
3.480000	11.695619	2.751193	-179.483848	0.279913	0.710717	-1.214318	50.401004	-23.304639	-22.487701	-71.245403	26.009555	10.716802	0.000000	53.383852	-28.792143	-15.702680	-70.889794	25.882776	19.050836	0.000000	-6.121218	1.648106	3.884247
3.485000	11.738661	2.738852	-179.482195	0.280626	0.707440	-1.214665	50.955632	-23.460861	-22.294310	-72.058037	26.342840	10.694985	0.000000	53.958104	-28.945981	-15.451818	-71.687334	26.276148	19.047769	0.000000	-6.170469	1.602228	3.882745
3.490000	11.765327	2.710695	-179.499289	0.281476	0.704007	-1.214931	51.547016	-23.635559	-22.070284	-72.921603	26.680294	10.657833	0.000000	54.545168	-29.088631	-15.232307	-72.533095	26.523420	19.012594	0.000000	-6.265606	1.530218	3.919633
3.495000	11.827158	2.703040	-179.564376	0.282152	0.700663	-1.215145	52.154975	-23.752815	-21.834530	-73.753920	27.000464	10.593831	0.000000	55.127881	-29.292261	-15.038080	-73.330371	26.866126	19.100830	0.000000	-6.285036	1.516015	3.979811
3.500000	11.851074	2.700685	-179.628500	0.282859	0.697214	-1.215371	52.725572	-23.884485	-21.624088	-74.604915	27.313757	10.595340	0.000000	55.681847	-29.503624	-14.835601	-74.140506	27.201700	19.167986	0.000000	-6.352389	1.502953	4.039089
3.505000	11.831080	2.683363	-179.678215	0.283539	0.693800	-1.215678	53.242069	-24.004778	-21.385028	-75.439517	27.701259	10.561354	0.000000	56.179649	-29.701064	-14.649084	-74.938590	27.575364	19.200839	0.000000	-6.469951	1.443071	4.086349
3.510000	11.880689	2.679193	-179.728754	0.284292	0.690317	-1.215927	53.824533	-24.130795	-21.167263	-76.242750	27.998296	10.629427	0.000000	56.774680	-29.884886	-14.415012	-75.740177	27.863052	19.274963	0.000000	-6.517034	1.401489	4.168039
3.515000	11.933450	2.689337	-179.783390	0.285024	0.686797	-1.216223	54.417008	-24.223833	-20.906739	-77.058908	28.344671	10.727349	0.000000	57.379117	-30.099695	-14.181130	-76.532954	28.184685	19.362571	0.000000	-6.546585	1.384874	4.246756
3.520000	11.898704	2.695077	-179.836741	0.285612	0.683397	-1.216497	54.900706	-24.331315	-20.685802	-77.866203	28.743157	10.764542	0.000000	57.862424	-30.318603	-13.970925	-77.306113	28.582898	19.407949	0.000000	-6.654807	1.390883	4.276129
3.525000	11.944953	2.685819	-179.894530	0.286344	0.679751	-1.216707	55.519914	-24.476891	-20.514015	-78.721071	29.043822	10.661406	0.000000	58.462628	-30.516236	-13.737582	-78.117258	28.901557	19.546535	0.000000	-6.688682	1.358687	4.365239
3.530000	11.994108	2.683351	-179.931746	0.286944	0.676248	-1.216934	56.070516	-24.596939	-20.371121	-79.487963	29.407829	10.459442	0.000000	59.065840	-30.703266	-13.505197	-78.939935	29.131650	19.565675	0.000000	-6.702652	1.354927	4.397091
3.535000	12.024183	2.716173	-179.999240	0.287574	0.672596	-1.217148	56.635652	-24.689193	-20.163410	-80.307435	29.671766	10.488393	0.000000	59.656916	-30.931806	-13.239180	-79.738262	29.473577	19.643901	0.000000	-6.747271	1.388921	4.494808
3.540000	12.016062	2.720668	-180.010940	0.288214	0.668994	-1.217420	57.149687	-24.814957	-19.965716	-81.119562	30.007821	10.468888	0.000000	60.259020	-31.132743	-12.945088	-80.701991	29.670973	19.742268	0.000000	-6.836718	1.368301	4.525678
3.545000	12.064645	2.747167	-180.048501	0.288767	0.665464	-1.217587	57.693687	-24.917628	-19.795986	-81.889082	30.329898	10.462735	0.000000	60.857730	-31.327827	-12.680328	-81.462145	29.979576	19.805059	0.000000	-6.860577	1.382654	4.579687
3.550000	12.027941	2.785955	-180.081131	0.289272	0.661956	-1.217749	58.152184	-25.019283	-19.631748	-82.688281	30.680742	10.436292	0.000000	61.377741	-31.533842	-12.400673	-82.241367	30.321343	19.846331	0.000000	-6.962633	1.423128	4.633055
3.555000	12.041579	2.796626	-180.080163	0.289910	0.658353	-1.217869	58.678468	-25.168152	-19.450256	-83.485292	31.013699	10.421628	0.000000	61.955834	-31.677670	-12.124760	-82.979268	30.692715	19.884683	0.000000	-7.014238	1.446770	4.616265
3.560000	12.072863	2.825727	-180.085271	0.290444	0.654895	-1.218023	59.169031	-25.283464	-19.292635	-84.218130	31.325870	10.425907	0.000000	62.530631	-31.835619	-11.838358	-83.706820	31.010900	19.948402	0.000000	-7.048292	1.461075	4.644446
3.565000	12.016660	2.813253	-180.053666	0.291002	0.651351	-1.218143	59.605308	-25.460079	-19.095214	-84.994581	31.662896	10.452184	0.000000	63.028739	-31.958439	-11.568944	-84.460766	31.325881	20.063197	0.000000	-7.170894	1.463475	4.578367
3.570000	12.020938	2.830248	-180.034332	0.291518	0.647795	-1.218260	60.070762	-25.584800	-18.874281	-85.708581	32.106335	10.597985	0.000000	63.595692	-32.093166	-11.264494	-85.198290	31.641783	20.167572	0.000000	-7.222237	1.485201	4.570903
3.575000	12.042270	2.855145	-180.023737	0.292005	0.644255	-1.218321	60.589639	-25.732524	-18.758893	-86.517261	32.339441	10.383549	0.000000	64.175306	-32.223186	-10.988559	-85.903684	31.917992	20.152601	0.000000	-7.251995	1.528996	4.574805
3.580000	12.062935	2.883601	-180.037266	0.292478	0.640731	-1.218425	61.106431	-25.842667	-18.589052	-87.280831	32.620290	10.319292	0.000000	64.756194	-32.371610	-10.676938	-86.634976	32.191048	20.147198	0.000000	-7.287348	1.566974	4.589291
3.585000	12.062747	2.884125	-180.022110	0.292934	0.637256	-1.218475	61.595052	-25.990047	-18.401175	-88.027842	32.906987	10.274178	0.000000	65.292078	-32.481799	-10.399617	-87.343175	32.484864	20.202819	0.000000	-7.341034	1.581026	4.577086
3.590000	12.060760	2.859687	-179.972103	0.293412	0.633784	-1.218506	62.074863	-26.163384	-18.187756	-88.760477	33.188232	10.249421	0.000000	65.818726	-32.544610	-10.131985	-88.039188	32.770257	20.261773	0.000000	-7.403488	1.562072	4.524463
3.595000	12.039342	2.836573	-179.931072	0.293853	0.630393	-1.218573	62.520951	-26.333998	-17.983812	-89.481303	33.484617	10.266994	0.000000	66.305602	-32.613259	-9.872057	-88.714920	33.058424	20.318206	0.000000	-7.484712	1.539235	4.483043
3.600000	12.054179	2.839091	-179.900095	0.294244	0.627097	-1.218654	62.984901	-26.475485	-17.807566	-90.183330	33.756071	10.281898	0.000000	66.838980	-32.713906	-9.577248	-89.412479	33.345604	20.453346	0.000000	-7.519769	1.533550	4.471661
3.605000	12.020624	2.831269	-179.893613	0.294676	0.623816	-1.218690	63.421958	-26.595965	-17.595976	-90.887639	34.077690	10.230311	0.000000	67.307025	-32.810858	-9.338495	-90.054887	33.616756	20.420494	0.000000	-7.611865	1.572096	4.403575
3.610000	12.016790	2.826105	-179.894781	0.295055	0.620488	-1.218700	63.893331	-26.729810	-17.396468	-91.596585	34.309650	10.225399	0.000000	67.826725	-32.913404	-9.056041	-90.800078	33.757144	20.404926	0.000000	-7.673526	1.550713	4.475777
3.615000	11.997389	2.803988	-179.869298	0.295514	0.617132	-1.218712	64.348419	-26.892993	-17.194942	-92.294438	34.558635	10.213242	0.000000	68.316493	-32.983061	-8.798090	-91.468854	34.016492	20.466738	0.000000	-7.750564	1.564492	4.436556
3.620000	11.962490	2.757949	-179.855275	0.295897	0.613862	-1.218808	64.788784	-27.054496	-16.970310	-92.980978	34.805927	10.208642	0.000000	68.751931	-33.053725	-8.578788	-92.114916	34.256939	20.528217	0.000000	-7.839740	1.527795	4.423014
3.625000	11.934390	2.731412	-179.845848	0.296229	0.610630	-1.218913	65.225002	-27.189376	-16.754710	-93.654581	35.063361	10.171601	0.000000	69.196989	-33.140953	-8.354251	-92.713236	34.556078	20.607599	0.000000	-7.919805	1.522050	4.397297
3.630000	11.822576	2.643003	-179.770655	0.296252	0.607725	-1.218411	65.537643	-27.485977	-16.523957	-94.291375	35.317352	10.176595	0.000000	69.466018	-33.088113	-8.184841	-93.424710	34.846449	20.656788	0.000000	-8.067189	1.508810	4.325018
3.635000	11.863826	2.666441	-179.846487	0.296835	0.604375	-1.218908	66.083379	-27.458039	-16.304481	-94.969309	35.546044	10.147860	0.000000	70.042866	-33.283111	-7.905972	-94.018905	35.023206	20.690129	0.000000	-8.103058	1.499024	4.399277
3.640000	11.818664	2.648022	-179.825558	0.297126	0.601284	-1.218964	66.469749	-27.599154	-16.119444	-95.605799	35.784718	10.139959	0.000000	70.463230	-33.348381	-7.657065	-94.623325	35.223803	20.718567	0.000000	-8.202540	1.482743	4.384572
3.645000	11.779154	2.644377	-179.813467	0.297443	0.598244	-1.219097	66.837173	-27.685750	-15.916965	-96.206036	36.032392	10.162687	0.000000	70.884300	-33.439867	-7.395900	-95.255844	35.471047	20.856334	0.000000	-8.290805	1.498364	4.376356
3.650000	11.780061	2.600774	-179.787433	0.297739	0.595240	-1.219104	67.260262	-27.822448	-15.682051	-96.793012	36.257168	10.196136	0.000000	71.305339	-33.473080	-7.226372	-95.793704	35.661992	20.883948	0.000000	-8.335823	1.469057	4.352341
3.655000	11.726155	2.567498	-179.793026	0.298087	0.592213	-1.219233	67.654736	-27.913628	-15.442286	-97.414396	36.478648	10.173969	0.000000	71.697818	-33.561033	-7.013917	-96.385867	35.876856	20.947009	0.000000	-8.444799	1.447964	4.384608
3.660000	11.667478	2.541816	-179.808467	0.298357	0.589312	-1.219239	68.029161	-28.001426	-15.215450	-98.018574	36.706965	10.126939	0.000000	72.061559	-33.632192	-6.794392	-96.967822	36.121083	20.973422	0.000000	-8.549772	1.458305	4.406384
3.665000	11.635695	2.521748	-179.827640	0.298540	0.586470	-1.219277	68.413830	-28.071512	-14.988246	-98.601163	36.939455	10.039472	0.000000	72.442575	-33.723065	-6.575470	-97.525219	36.327438	21.028050	0.000000	-8.620639	1.458989	4.458263
